# xmcd
#
# Track frame offsets: 
#        150
#        4960
#        25689
#        50738
#        52516
#        74377
#        95290
#        116311
#        135872
#        161070
#        162244
#        186290
#        188075
#        215106
#        245815
#        248094
#        268825
#        290296
#        310476
#        333716
#        334684
#
# Disc length: 4692 seconds
#
# Revision: 0
# Processed by: cddbd v1.5.2PL0 Copyright (c) Steve Scherf et al.
# Submitted via: ExactAudioCopy v0.99pb1
#
DISCID=32125215
DTITLE=Janet Jackson - All For You (Bonus DVD Edition)
DYEAR=2001
DGENRE=R&B
TTITLE0=Intro
TTITLE1=You Ain't Right
TTITLE2=All For You
TTITLE3=2 Way For You (Interlude)
TTITLE4=Come On Get Up
TTITLE5=When We Oooo
TTITLE6=China Love
TTITLE7=Love Scene (Ooh Baby)
TTITLE8=Lame (Interlude)
TTITLE9=Trust A Try
TTITLE10=Clouds (Interlude)
TTITLE11=Son Of A Gun (I Betcha Think This Song Is About You)
TTITLE12=Truth
TTITLE13=Theory (Interlude)
TTITLE14=Someone To Call My Lover
TTITLE15=Feels So Right
TTITLE16=Doesn't Really Matter
TTITLE17=Better Days
TTITLE18=Outro
TTITLE19=Son Of A Gun (I Betcha Think This Song Is About You) (The Ori
TTITLE19=ginal Flyte Tyme Remix)
TTITLE20=Son Of A Gun (I Betcha Think This Song Is About You) (P.Diddy
TTITLE20=Remix)
EXTD=
EXTT0=
EXTT1=
EXTT2=
EXTT3=
EXTT4=
EXTT5=
EXTT6=
EXTT7=
EXTT8=
EXTT9=
EXTT10=
EXTT11=
EXTT12=
EXTT13=
EXTT14=
EXTT15=
EXTT16=
EXTT17=
EXTT18=
EXTT19=
EXTT20=
PLAYORDER=
